<svg width="96" height="30" xmlns="http://www.w3.org/2000/svg">
 <!-- Created with Method Draw - http://github.com/duopixel/Method-Draw/ -->

 <g>
  <title>Layer 1</title>
  <g stroke="null" id="svg_20">
   <g stroke="null" transform="matrix(0.234019283971984,0,0,0.21463803679855376,0.232334280063919,0.35013623401438987) " id="svg_18">
    <title stroke="null">background</title>
    <rect stroke="null" x="-1" y="-1" width="404" height="128" id="svg_16" fill="none"/>
   </g>
   <g stroke="null" transform="matrix(0.23856387377318738,0,0,0.23834576915998074,0.23797744588756092,0.2297911301022293) " id="svg_19">
    <title stroke="null">Layer 1</title>
    <g stroke="null" id="svg_10">
     <path stroke="null" id="svg_15" fill="#000000" fill-rule="evenodd"/>
     <path stroke="null" id="svg_14" fill="#aaaaaa" fill-rule="evenodd"/>
     <path stroke="null" id="svg_13" d="m22,0.919c-3.497,2.129 -4.306,3.776 -6.182,12.581c-0.34,1.595 -0.877,4.115 -1.193,5.6c-0.916,4.294 -1.814,8.434 -2.625,12.1c-1.329,6.007 -2.936,13.508 -3.812,17.8c-0.36,1.76 -0.909,4.116 -1.221,5.235c-0.312,1.119 -0.567,2.503 -0.567,3.074c0,0.571 -0.179,1.509 -0.398,2.084c-0.218,0.575 -0.557,1.982 -0.754,3.126c-0.196,1.145 -0.924,4.601 -1.619,7.681c-0.694,3.08 -1.541,6.95 -1.882,8.6c-0.341,1.65 -0.874,4.002 -1.184,5.226c-1.045,4.131 -0.777,7.723 0.668,8.938l1.23,1.036l17.759,0l17.759,0l0.611,-1.18c2.07,-4.003 -1.61,-8.208 -7.625,-8.714c-3.354,-0.282 -5.164,0.624 -8.062,4.037c-1.582,1.863 -4.103,0.276 -4.103,-2.582c0,-0.891 1.535,-5.128 2.014,-5.561c0.122,-0.11 0.59,-0.83 1.04,-1.6c0.922,-1.576 2.303,-3.231 4.962,-5.946c2.414,-2.466 7.581,-7.254 7.827,-7.254c0.193,0 1.003,-0.833 2.969,-3.056c0.855,-0.967 2.886,-4.204 4.45,-7.093c4.506,-8.321 3.208,-19.912 -3.309,-29.56c-4.532,-6.709 -3.464,-10.696 3.347,-12.496c4.201,-1.11 3.963,-1.702 -2.9,-7.21c-6.611,-5.306 -7.664,-5.797 -12.344,-5.752c-2.783,0.027 -3.728,0.199 -4.856,0.886m84.8,1.047c-10.177,3.345 -15.569,12.798 -15.593,27.334l-0.007,4.3l-4.411,0l-4.412,0l0.112,5.5l0.111,5.5l4.3,0.114l4.3,0.113l0,24.597l0,24.597l6.1,-0.111l6.1,-0.11l0.103,-24.488l0.103,-24.489l5.297,-0.111l5.297,-0.112l0.111,-5.5l0.112,-5.5l-5.412,0l-5.411,0l0,-4.021c0,-5.979 1.429,-11.447 3.457,-13.232c2.582,-2.272 8.85,-3.473 12.65,-2.424l1.493,0.413l0,-5.936l0,-5.936l-2.779,-0.632c-3.708,-0.843 -8.827,-0.784 -11.621,0.134m133.688,30.166c-13.261,13.207 -13.018,12.668 -5.711,12.668l5.178,0l0.16,17.9c0.13,14.675 0.271,18.26 0.777,19.9c0.782,2.531 1.958,5 2.382,5c0.179,0 0.326,0.18 0.326,0.4c0,0.877 3.953,4.012 6.4,5.075c6.265,2.721 16.284,2.168 23.1,-1.277l1.3,-0.657l0,-5.57c0,-6.286 0.024,-6.247 -2.946,-4.721c-0.909,0.468 -1.955,1.001 -2.323,1.184c-4.585,2.288 -12.03,1.925 -14.333,-0.697c-2.244,-2.556 -2.398,-3.907 -2.398,-21.01l0,-15.527l9.4,0l9.4,0l0,-5.6l0,-5.6l-9.4,0l-9.4,0l0,-6.2c0,-4.71 -0.12,-6.192 -0.5,-6.168c-0.275,0.018 -5.411,4.923 -11.412,10.9m-99.888,0.891c-0.88,0.342 -2.05,0.774 -2.6,0.96c-1.933,0.653 -5.009,2.206 -5.6,2.827c-0.11,0.116 -0.968,0.808 -1.906,1.539c-14.049,10.936 -13.481,39.143 1.02,50.68c10.063,8.006 27.407,7.985 40.783,-0.05l1.298,-0.779l0.002,-5.9c0.003,-6.128 -0.196,-6.767 -1.684,-5.4c-1.166,1.072 -8.305,4.7 -9.248,4.7c-0.312,0 -1.243,0.282 -2.068,0.627c-3.259,1.362 -12.725,1.189 -16.597,-0.303c-4.893,-1.885 -9.453,-7.49 -10.765,-13.23c-0.891,-3.901 -3.264,-3.494 20.378,-3.494c19.168,0 20.833,-0.053 21.071,-0.676c1.028,-2.678 -1.165,-13.516 -3.814,-18.851c-3.013,-6.069 -6.094,-8.806 -13.87,-12.325c-2.258,-1.021 -14.009,-1.254 -16.4,-0.325m55.636,-0.014c-4.52,1.715 -9.436,5.134 -9.436,6.564c0,0.235 -0.155,0.427 -0.344,0.427c-0.926,0 -2.056,4.527 -2.056,8.235c0,7.287 4.751,13.423 14.4,18.599c0.99,0.531 2.038,1.191 2.329,1.466c0.29,0.275 0.726,0.5 0.968,0.5c0.242,0 0.724,0.25 1.072,0.556c0.347,0.306 1.299,0.91 2.115,1.341c7.329,3.875 8.552,9.526 2.709,12.507c-4.429,2.259 -13.643,-0.054 -21.631,-5.43c-1.123,-0.755 -2.204,-1.374 -2.402,-1.374c-0.766,0 -0.433,13.2 0.34,13.468c0.385,0.133 1.78,0.745 3.1,1.358c9.974,4.639 22.446,4.854 29.471,0.51c1.787,-1.105 5.129,-4.298 5.129,-4.9c0,-0.24 0.147,-0.436 0.326,-0.436c1.009,0 2.274,-4.682 2.274,-8.413c0,-8.15 -4.314,-13.288 -17.326,-20.636c-9.966,-5.628 -12.131,-8.548 -8.939,-12.056c2.427,-2.666 8.419,-2.79 14.265,-0.295c3.385,1.445 6.024,2.735 6.6,3.226c0.33,0.281 1.1,0.636 1.711,0.789l1.11,0.277l-0.11,-6.129l-0.111,-6.129l-3.4,-1.467c-6.525,-2.816 -6.865,-2.889 -14,-3.025c-5.106,-0.098 -6.954,0.008 -8.164,0.467m104.364,-0.344c-0.822,0.177 -2.254,0.7 -5.4,1.973c-16.681,6.745 -21.601,34.019 -9.052,50.178c9.289,11.962 27.68,13.612 45.29,4.062c0.95,-0.515 0.962,-0.597 0.962,-6.5c0,-6.16 -0.152,-6.683 -1.569,-5.411c-3.854,3.458 -12.141,5.996 -19.631,6.012l-6.2,0.012l-2.689,-1.319c-2.487,-1.221 -6.606,-4.673 -7.244,-6.072c-0.151,-0.33 -0.655,-1.23 -1.121,-2c-0.881,-1.455 -2.346,-6.196 -2.346,-7.591c0,-0.791 0.288,-0.803 20.9,-0.905l20.9,-0.104l-0.126,-4.8c-0.13,-4.948 -1.081,-9.819 -2.461,-12.6c-3.977,-8.015 -8.109,-11.838 -15.515,-14.351c-2.391,-0.812 -11.89,-1.189 -14.698,-0.584m-239.703,31.035l0.103,30.1l6.1,0.11l6.1,0.111l0,-30.211l0,-30.21l-6.203,0l-6.202,0l0.102,30.1m283.903,15.061l0,45.239l6.4,0l6.4,0l0,-15.6c0,-17.001 -0.136,-16.088 2.262,-15.176c14.684,5.582 32.44,-2.283 37.982,-16.824c2.676,-7.023 2.895,-18.115 0.473,-24c-0.226,-0.55 -0.557,-1.492 -0.735,-2.093c-0.871,-2.951 -7.155,-10.399 -9.739,-11.543c-0.464,-0.206 -1.449,-0.74 -2.19,-1.187c-5.215,-3.148 -8.549,-3.653 -25.553,-3.865l-15.3,-0.191l0,45.24m-191.9,-34.976c4.712,1.43 7.595,4.727 8.935,10.215c0.975,3.996 2.522,3.6 -14.07,3.6l-14.635,0l0.28,-1.657c1.534,-9.085 10.725,-14.818 19.49,-12.158m160.5,0.591c3.732,1.765 6.044,4.843 7.227,9.624c0.989,3.995 2.526,3.6 -14.027,3.6c-11.416,0 -14.599,-0.109 -14.596,-0.5c0.083,-9.551 12.496,-16.933 21.396,-12.724m61.801,1.585c7.972,2.333 12.005,8.304 11.994,17.757c-0.019,16.143 -13.356,24.853 -28.085,18.341l-1.489,-0.659l-0.011,-18.1l-0.01,-18.1l7.501,0c6.194,0 7.954,0.133 10.1,0.761m-324.801,35.79c0,0.083 0.27,0.375 0.6,0.649c0.491,0.408 0.6,0.38 0.6,-0.151c0,-0.357 -0.27,-0.649 -0.6,-0.649c-0.33,0 -0.6,0.068 -0.6,0.151" fill="#ffffff" fill-rule="evenodd"/>
     <path stroke="null" id="svg_12" d="m63.8,8.265c-7.682,4.05 -5.204,14.935 3.4,14.935c5.17,0 8.22,-3.867 7.455,-9.451c-0.635,-4.633 -6.679,-7.686 -10.855,-5.484" fill="#fd3e3f" fill-rule="evenodd"/>
     <path stroke="null" id="svg_11" fill="#0000ff" fill-rule="evenodd"/>
    </g>
   </g>
  </g>
 </g>
</svg>